<svg xmlns="http://www.w3.org/2000/svg" viewBox="13 1.5 130.5 78.5">
  <path fill="#2B3990" d="M92.83,45.91l-21.88-37.01c-7.04-11.91-24.28-11.85-31.25.1l-21.72,37.27c-5.57,9.55-1.85,21.82,8.08,26.67,9.17,4.49,20.25,1.08,25.33-7.78l12.06-21.05c.49-.86.49-1.91-.01-2.77l-4.82-8.26c-.47-.8-1.62-.8-2.08,0l-15.14,26.06c-2.07,3.57-6.66,4.76-10.21,2.65l-.62-.37c-3.05-1.82-4.08-5.74-2.33-8.82L49.51,15.09c2.57-4.53,9.1-4.53,11.68,0l21.49,37.88c1.68,2.97.95,6.72-1.73,8.84l-1.23.97c-2.57,2.03-6.19,2.09-8.82.13l-4.57-3.5c-2.35-1.8-5.72-1.35-7.52,1.01l-.17.22c-1.82,2.39-1.54,5.78.66,7.83l2.29,2.14c6.9,6.34,17.3,6.94,24.88,1.43l1.09-.79c8.02-5.83,10.29-16.81,5.25-25.35ZM85.79,65.52l-2.5,2.02c-4.85,3.25-11.44,3.98-18.5-.8-.39.2-.83.32-1.29.32-1.59,0-2.88-1.29-2.88-2.88s1.29-2.88,2.88-2.88,2.88,1.29,2.88,2.88c0,.58-.17,1.11-.47,1.56,4.07,3.27,12.1,4.22,16.48.69l2.5-2.02c3.87-3.12,4.95-8.55,2.58-12.92l-10.75-19.75-11.28-19.67c-2.08-3.63-5.82-5.79-10-5.79h0c-4.18,0-7.92,2.17-10,5.79l-21.76,37.12c-2.01,3.23-2.65,6.34-1.91,9.27,1.27,5.02,6.21,7.9,6.26,7.93,6.68,3.58,13.67,1.25,16.31-2.97l11.36-19.22c-.54-.58-.87-1.34-.87-2.19,0-1.78,1.45-3.23,3.23-3.23s3.23,1.45,3.23,3.23-1.45,3.23-3.23,3.23c-.42,0-.81-.09-1.18-.23l-11.32,19.15c-2.99,4.78-10.8,7.45-18.22,3.48-.24-.14-5.53-3.2-6.95-8.81-.84-3.32-.15-6.81,2.07-10.37L44.22,11.35c2.33-4.07,6.53-6.5,11.23-6.5h0c4.7,0,8.9,2.43,11.23,6.51l11.29,19.69,10.75,19.77c2.7,4.97,1.47,11.16-2.94,14.72Z"></path>
  <path fill="#2B3990" d="M138.36,46.1l-21.88-37.01c-7.04-11.91-24.28-11.85-31.25.1l-5.1,8.76,2.91,5.04,6.71-11.45c2.33-4.07,6.53-6.5,11.23-6.5h0c4.7,0,8.9,2.43,11.23,6.51l11.29,19.69,10.75,19.77c2.7,4.97,1.47,11.16-2.94,14.72l-2.5,2.02c-4.81,3.22-11.33,3.97-18.33-.69-.51.35-1.14.55-1.8.55-1.78,0-3.23-1.45-3.23-3.23s1.45-3.23,3.23-3.23,3.23,1.45,3.23,3.23c0,.58-.17,1.12-.44,1.59,4.08,3.25,12.08,4.19,16.45.67l2.5-2.02c3.87-3.12,4.95-8.55,2.58-12.92l-10.75-19.75-11.28-19.67c-2.08-3.63-5.82-5.79-10-5.79h0c-4.18,0-7.92,2.17-10,5.79l-7.13,12.15,3.03,5.25,8.16-14.37c2.57-4.53,9.1-4.53,11.68,0l21.49,37.88c1.68,2.97.95,6.72-1.73,8.84l-1.23.97c-2.57,2.03-6.19,2.09-8.82.13l-4.57-3.5c-2.35-1.8-5.72-1.35-7.52,1.01l-.17.22c-1.82,2.39-1.54,5.78.66,7.83l2.29,2.14c6.9,6.34,17.3,6.94,24.88,1.43l1.09-.79c8.02-5.83,10.29-16.81,5.25-25.35Z"></path>
  <path fill="#2B3990" d="M63.5,62.72c-.8,0-1.46.65-1.46,1.46s.65,1.45,1.46,1.45,1.46-.65,1.46-1.45-.65-1.46-1.46-1.46Z"></path>
  <path fill="#2B3990" d="M58.07,43.81c.99,0,1.8-.81,1.8-1.8s-.81-1.8-1.8-1.8-1.8.81-1.8,1.8.81,1.8,1.8,1.8Z"></path>
  <path fill="#2B3990" d="M106.89,64.36c0,.99.81,1.8,1.8,1.8s1.8-.81,1.8-1.8-.81-1.8-1.8-1.8-1.8.81-1.8,1.8Z"></path>
</svg>